<svg width="77" height="77" viewBox="0 0 77 77" fill="none" xmlns="http://www.w3.org/2000/svg">
<g clip-path="url(#clip0_694_4748)">
<path d="M38.7679 15.9615C42.1659 15.9615 44.9205 13.2069 44.9205 9.80889C44.9205 6.41088 42.1659 3.65625 38.7679 3.65625C35.3699 3.65625 32.6152 6.41088 32.6152 9.80889C32.6152 13.2069 35.3699 15.9615 38.7679 15.9615Z" stroke="#2362C0" stroke-width="6.36073" stroke-linecap="round" stroke-linejoin="round"/>
<path d="M38.7679 73.4615C42.1659 73.4615 44.9205 70.7069 44.9205 67.3089C44.9205 63.9109 42.1659 61.1562 38.7679 61.1562C35.3699 61.1562 32.6152 63.9109 32.6152 67.3089C32.6152 70.7069 35.3699 73.4615 38.7679 73.4615Z" stroke="#2362C0" stroke-width="6.36073" stroke-linecap="round" stroke-linejoin="round"/>
<path d="M58.3386 27.2583C60.0376 30.2011 63.8005 31.2093 66.7432 29.5103C69.686 27.8113 70.6943 24.0484 68.9953 21.1057C67.2963 18.1629 63.5334 17.1547 60.5906 18.8537C57.6478 20.5527 56.6396 24.3156 58.3386 27.2583Z" stroke="#2362C0" stroke-width="6.36073" stroke-linecap="round" stroke-linejoin="round"/>
<path d="M8.53976 56.0083C10.2388 58.9511 14.0017 59.9593 16.9444 58.2603C19.8872 56.5613 20.8954 52.7984 19.1964 49.8557C17.4974 46.9129 13.7345 45.9047 10.7918 47.6037C7.84902 49.3027 6.84075 53.0656 8.53976 56.0083Z" stroke="#2362C0" stroke-width="6.36073" stroke-linecap="round" stroke-linejoin="round"/>
<path d="M58.3388 49.8573C56.6398 52.8001 57.648 56.563 60.5908 58.262C63.5336 59.961 67.2965 58.9527 68.9955 56.01C70.6945 53.0672 69.6862 49.3043 66.7434 47.6053C63.8007 45.9063 60.0378 46.9146 58.3388 49.8573Z" stroke="#2362C0" stroke-width="6.36073" stroke-linecap="round" stroke-linejoin="round"/>
<path d="M8.53995 21.1054C6.84095 24.0482 7.84921 27.811 10.792 29.51C13.7347 31.2091 17.4976 30.2008 19.1966 27.258C20.8956 24.3153 19.8874 20.5524 16.9446 18.8534C14.0018 17.1544 10.239 18.1626 8.53995 21.1054Z" stroke="#2362C0" stroke-width="6.36073" stroke-linecap="round" stroke-linejoin="round"/>
<rect x="31.2891" y="31.0801" width="14.9576" height="14.9576" stroke="#2362C0" stroke-width="6.36073" stroke-linecap="round" stroke-linejoin="round"/>
<path d="M38.7681 30.5729V16.0625" stroke="#2362C0" stroke-width="6.36073" stroke-linecap="round" stroke-linejoin="round"/>
<path d="M38.7681 61.1569V46.6465" stroke="#2362C0" stroke-width="6.36073" stroke-linecap="round" stroke-linejoin="round"/>
<path d="M20.0491 51.7854L31.646 45.6053" stroke="#2362C0" stroke-width="6.36073" stroke-linecap="round" stroke-linejoin="round"/>
<path d="M20.0491 26.0193L31.646 32.1994" stroke="#2362C0" stroke-width="6.36073" stroke-linecap="round" stroke-linejoin="round"/>
<path d="M57.4871 51.7854L45.8901 45.6053" stroke="#2362C0" stroke-width="6.36073" stroke-linecap="round" stroke-linejoin="round"/>
<path d="M57.4871 26.0193L45.8901 32.1994" stroke="#2362C0" stroke-width="6.36073" stroke-linecap="round" stroke-linejoin="round"/>
</g>
<defs>
<clipPath id="clip0_694_4748">
<rect width="76.3287" height="76.3287" fill="white" transform="translate(0.603516 0.394531)"/>
</clipPath>
</defs>
</svg>
