<svg width="78" height="77" viewBox="0 0 78 77" fill="none" xmlns="http://www.w3.org/2000/svg">
<path d="M12.2157 7.34798V10.5283C12.2408 10.5283 12.2659 10.528 12.291 10.5275L12.2157 7.34798ZM5.07609 8.65L2.11437 9.80885L2.11437 9.80885L5.07609 8.65ZM16.4954 37.835L19.4747 38.948C19.7487 38.2144 19.7425 37.4054 19.4572 36.6761L16.4954 37.835ZM5.04806 68.4771L8.02731 69.5901L8.02731 69.5901L5.04806 68.4771ZM18.7809 69.7654V66.5851C18.768 66.5851 18.7552 66.5851 18.7423 66.5853L18.7809 69.7654ZM28.8194 67.2126L31.7835 68.3654L28.8194 67.2126ZM37.3016 45.4019V42.2216C35.99 42.2216 34.8129 43.0268 34.3375 44.2492L37.3016 45.4019ZM46.8245 45.4019L49.8038 46.5149C50.1686 45.5384 50.0317 44.4452 49.4374 43.5888C48.8431 42.7324 47.8669 42.2216 46.8245 42.2216V45.4019ZM38.204 68.4771L41.1833 69.5901L38.204 68.4771ZM51.9368 69.7654V66.5851C51.924 66.5851 51.9111 66.5851 51.8983 66.5853L51.9368 69.7654ZM61.9754 67.2126L59.0113 66.0599V66.0599L61.9754 67.2126ZM73.0772 38.6663L76.0413 39.819C76.0433 39.8138 76.0454 39.8085 76.0474 39.8032L73.0772 38.6663ZM73.0778 38.6647L70.1137 37.5119C70.1117 37.5172 70.1096 37.5225 70.1076 37.5278L73.0778 38.6647ZM73.1403 38.504L76.1043 39.6569L76.1044 39.6568L73.1403 38.504ZM73.1374 37.8347L70.1832 39.0125L73.1374 37.8347ZM61.9887 9.87116L59.0345 11.049V11.049L61.9887 9.87116ZM45.3716 7.34798V10.5283C45.3967 10.5283 45.4218 10.528 45.4469 10.5275L45.3716 7.34798ZM38.2321 8.65L35.2703 9.80884V9.80885L38.2321 8.65ZM47.3191 31.8743V35.0547C48.3702 35.0547 49.3534 34.5354 49.946 33.6673C50.5385 32.7991 50.6639 31.6943 50.2809 30.7155L47.3191 31.8743ZM37.6051 31.8743L34.6508 33.0522C35.1329 34.2614 36.3033 35.0547 37.6051 35.0547V31.8743ZM28.8327 9.87116L31.7869 8.69335V8.69335L28.8327 9.87116ZM45.411 4.16729C43.6545 4.16729 42.2306 5.59119 42.2306 7.34766C42.2306 9.10412 43.6545 10.528 45.411 10.528V4.16729ZM58.1005 10.528C59.857 10.528 61.2809 9.10412 61.2809 7.34766C61.2809 5.59119 59.857 4.16729 58.1005 4.16729V10.528ZM76.1044 39.6567C76.741 38.0197 75.93 36.1765 74.293 35.5399C72.6559 34.9033 70.8128 35.7143 70.1762 37.3514L76.1044 39.6567ZM70.1131 37.5136C69.4764 39.1507 70.2875 40.9938 71.9245 41.6304C73.5615 42.267 75.4047 41.456 76.0413 39.819L70.1131 37.5136ZM39.2182 4.16762C37.4618 4.16762 36.0379 5.59151 36.0379 7.34798C36.0379 9.10445 37.4618 10.5283 39.2182 10.5283V4.16762ZM45.3716 10.5283C47.1281 10.5283 48.552 9.10445 48.552 7.34798C48.552 5.59151 47.1281 4.16762 45.3716 4.16762V10.5283ZM12.2431 10.528H24.9446V4.16729H12.2431V10.528ZM12.291 10.5275C12.2749 10.5278 12.259 10.528 12.2431 10.528V4.16729C12.2088 4.16729 12.1746 4.1677 12.1403 4.16851L12.291 10.5275ZM6.05031 10.5283H12.2157V4.16762H6.05031V10.5283ZM8.03781 7.49116C8.72378 9.24433 7.23786 10.5283 6.05031 10.5283V4.16762C3.42156 4.16762 0.933528 6.79091 2.11437 9.80885L8.03781 7.49116ZM19.4572 36.6761L8.03781 7.49115L2.11437 9.80885L13.5337 38.9938L19.4572 36.6761ZM8.02731 69.5901L19.4747 38.948L13.5162 36.722L2.06881 67.3641L8.02731 69.5901ZM6.02739 66.5854C7.2059 66.5854 8.67924 67.845 8.02731 69.5901L2.06881 67.3641C0.946142 70.3692 3.42054 72.9461 6.02739 72.9461V66.5854ZM18.727 66.5854H6.02739V72.9461H18.727V66.5854ZM18.7423 66.5853C18.7375 66.5854 18.7324 66.5854 18.727 66.5854V72.9461C18.7576 72.9461 18.7884 72.9459 18.8194 72.9455L18.7423 66.5853ZM24.9197 66.5851H18.7809V72.9458H24.9197V66.5851ZM25.8553 66.0599C25.772 66.2741 25.4592 66.5851 24.9197 66.5851V72.9458C27.8704 72.9458 30.6748 71.2162 31.7835 68.3654L25.8553 66.0599ZM34.3375 44.2492L25.8553 66.0599L31.7835 68.3654L40.2657 46.5547L34.3375 44.2492ZM37.3016 48.5823H46.8245V42.2216H37.3016V48.5823ZM41.1833 69.5901L49.8038 46.5149L43.8453 44.2889L35.2248 67.3641L41.1833 69.5901ZM39.1834 66.5854C40.3619 66.5854 41.8352 67.845 41.1833 69.5901L35.2248 67.3641C34.1021 70.3692 36.5765 72.9461 39.1834 72.9461V66.5854ZM51.8829 66.5854H39.1834V72.9461H51.8829V66.5854ZM51.8983 66.5853C51.8934 66.5854 51.8883 66.5854 51.8829 66.5854V72.9461C51.9135 72.9461 51.9443 72.9459 51.9754 72.9455L51.8983 66.5853ZM58.0757 66.5851H51.9368V72.9458H58.0757V66.5851ZM59.0113 66.0599C58.928 66.2741 58.6152 66.5851 58.0757 66.5851V72.9458C61.0264 72.9458 63.8308 71.2162 64.9395 68.3654L59.0113 66.0599ZM70.1131 37.5135L59.0113 66.0599L64.9395 68.3654L76.0413 39.819L70.1131 37.5135ZM70.1076 37.5278L70.107 37.5294L76.0474 39.8032L76.048 39.8016L70.1076 37.5278ZM70.1762 37.3512L70.1137 37.5119L76.0419 39.8175L76.1043 39.6569L70.1762 37.3512ZM70.1832 39.0125C69.9712 38.4809 69.9685 37.8853 70.1762 37.3513L76.1044 39.6568C76.4804 38.69 76.4756 37.6199 76.0916 36.6568L70.1832 39.0125ZM59.0345 11.049L70.1832 39.0125L76.0916 36.6568L64.9429 8.69335L59.0345 11.049ZM58.1005 10.528C58.6357 10.528 58.9491 10.8348 59.0345 11.049L64.9429 8.69335C63.8185 5.87298 61.0311 4.16729 58.1005 4.16729V10.528ZM45.399 10.528H58.1005V4.16729H45.399V10.528ZM45.4469 10.5275C45.4309 10.5278 45.4149 10.528 45.399 10.528V4.16729C45.3648 4.16729 45.3305 4.1677 45.2963 4.16851L45.4469 10.5275ZM39.2063 10.5283H45.3716V4.16762H39.2063V10.5283ZM41.1938 7.49116C41.8797 9.24434 40.3938 10.5283 39.2063 10.5283V4.16762C36.5775 4.16762 34.0895 6.7909 35.2703 9.80884L41.1938 7.49116ZM50.2809 30.7155L41.1938 7.49115L35.2703 9.80885L44.3574 33.0332L50.2809 30.7155ZM37.6051 35.0547H47.3191V28.694H37.6051V35.0547ZM25.8785 11.049L34.6508 33.0522L40.5593 30.6965L31.7869 8.69335L25.8785 11.049ZM24.9446 10.528C25.4797 10.528 25.7931 10.8348 25.8785 11.049L31.7869 8.69335C30.6625 5.873 27.8751 4.16729 24.9446 4.16729V10.528ZM45.411 10.528H58.1005V4.16729H45.411V10.528ZM70.1762 37.3514L70.1131 37.5136L76.0413 39.819L76.1044 39.6567L70.1762 37.3514ZM39.2182 10.5283H45.3716V4.16762H39.2182V10.5283Z" fill="#2362C0"/>
</svg>
