<svg width="77" height="77" viewBox="0 0 77 77" fill="none" xmlns="http://www.w3.org/2000/svg">
<path d="M38.7678 22.6577C43.159 22.6577 46.7187 19.0979 46.7187 14.7068C46.7187 10.3156 43.159 6.75586 38.7678 6.75586C34.3766 6.75586 30.8169 10.3156 30.8169 14.7068C30.8169 19.0979 34.3766 22.6577 38.7678 22.6577Z" stroke="#2362C0" stroke-width="6.36073" stroke-linecap="round" stroke-linejoin="round"/>
<path d="M33.0426 20.4297L20.6392 32.8331" stroke="#2362C0" stroke-width="6.36073" stroke-linecap="round" stroke-linejoin="round"/>
<path d="M14.9153 46.5092C19.3064 46.5092 22.8662 42.9495 22.8662 38.5583C22.8662 34.1672 19.3064 30.6074 14.9153 30.6074C10.5241 30.6074 6.96436 34.1672 6.96436 38.5583C6.96436 42.9495 10.5241 46.5092 14.9153 46.5092Z" stroke="#2362C0" stroke-width="6.36073" stroke-linecap="round" stroke-linejoin="round"/>
<path d="M22.8657 38.5586H54.6694" stroke="#2362C0" stroke-width="6.36073" stroke-linecap="round" stroke-linejoin="round"/>
<path d="M62.6203 46.5092C67.0115 46.5092 70.5713 42.9495 70.5713 38.5583C70.5713 34.1672 67.0115 30.6074 62.6203 30.6074C58.2292 30.6074 54.6694 34.1672 54.6694 38.5583C54.6694 42.9495 58.2292 46.5092 62.6203 46.5092Z" stroke="#2362C0" stroke-width="6.36073" stroke-linecap="round" stroke-linejoin="round"/>
<path d="M44.4917 56.6866L56.8951 44.2832" stroke="#2362C0" stroke-width="6.36073" stroke-linecap="round" stroke-linejoin="round"/>
<path d="M38.7678 70.3628C43.159 70.3628 46.7187 66.803 46.7187 62.4118C46.7187 58.0207 43.159 54.4609 38.7678 54.4609C34.3766 54.4609 30.8169 58.0207 30.8169 62.4118C30.8169 66.803 34.3766 70.3628 38.7678 70.3628Z" stroke="#2362C0" stroke-width="6.36073" stroke-linecap="round" stroke-linejoin="round"/>
</svg>
