<svg width="78" height="77" viewBox="0 0 78 77" fill="none" xmlns="http://www.w3.org/2000/svg">
<path d="M61.3591 48.0999V21.0668C61.3591 18.1146 60.1863 15.2833 58.0988 13.1958C56.0113 11.1083 53.18 9.93555 50.2278 9.93555C47.2756 9.93555 44.4443 11.1083 42.3568 13.1958C40.2693 15.2833 39.0965 18.1146 39.0965 21.0668V56.0508C39.0965 59.003 37.9238 61.8343 35.8363 63.9218C33.7487 66.0093 30.9175 67.1821 27.9653 67.1821C25.0131 67.1821 22.1818 66.0093 20.0943 63.9218C18.0067 61.8343 16.834 59.003 16.834 56.0508V29.0177" stroke="#2362C0" stroke-width="6.36073" stroke-linecap="round" stroke-linejoin="round"/>
<circle cx="16.834" cy="20.6709" r="7.41895" stroke="#2362C0" stroke-width="6.36073" stroke-linecap="round" stroke-linejoin="round"/>
<circle cx="61.3589" cy="55.501" r="7.41895" stroke="#2362C0" stroke-width="6.36073" stroke-linecap="round" stroke-linejoin="round"/>
</svg>
