<svg width="77" height="77" viewBox="0 0 77 77" fill="none" xmlns="http://www.w3.org/2000/svg">
<path d="M6.62256 9.93555H25.7047C29.0787 9.93555 32.3144 11.2758 34.7002 13.6616C37.0859 16.0473 38.4262 19.2831 38.4262 22.657V67.1821C38.4262 64.6516 37.421 62.2248 35.6317 60.4355C33.8424 58.6462 31.4156 57.641 28.8851 57.641H6.62256V9.93555Z" stroke="#2362C0" stroke-width="6.36073" stroke-linecap="round" stroke-linejoin="round"/>
<path d="M70.2299 9.93555H51.1477C47.7738 9.93555 44.538 11.2758 42.1523 13.6616C39.7666 16.0473 38.4263 19.2831 38.4263 22.657V67.1821C38.4263 64.6516 39.4315 62.2248 41.2208 60.4355C43.0101 58.6462 45.4369 57.641 47.9674 57.641H70.2299V9.93555Z" stroke="#2362C0" stroke-width="6.36073" stroke-linecap="round" stroke-linejoin="round"/>
<path d="M19.344 25.8379H25.7047" stroke="#2362C0" stroke-width="6.36073" stroke-linecap="round" stroke-linejoin="round"/>
<path d="M19.344 38.5586H25.7047" stroke="#2362C0" stroke-width="6.36073" stroke-linecap="round" stroke-linejoin="round"/>
<path d="M51.1477 25.8379H57.5084" stroke="#2362C0" stroke-width="6.36073" stroke-linecap="round" stroke-linejoin="round"/>
<path d="M51.1477 38.5586H57.5084" stroke="#2362C0" stroke-width="6.36073" stroke-linecap="round" stroke-linejoin="round"/>
</svg>
