<svg width="16" height="16" viewBox="0 0 16 16" fill="none" xmlns="http://www.w3.org/2000/svg">
<path d="M3.80876 6.04437L1.29385 8.55915C0.885763 8.96179 0.561352 9.44117 0.339301 9.96969C0.11725 10.4982 0.00194593 11.0654 2.53121e-05 11.6387C-0.00189531 12.212 0.109607 12.78 0.328111 13.31C0.546616 13.84 0.867806 14.3215 1.27319 14.7269C1.67857 15.1322 2.16014 15.4534 2.69017 15.6719C3.2202 15.8904 3.78821 16.0019 4.3615 16C4.9348 15.9981 5.50205 15.8828 6.0306 15.6607C6.55916 15.4387 7.03856 15.1143 7.44122 14.7062L8.27899 13.8685C8.39227 13.7592 8.48265 13.6284 8.54485 13.4838C8.60705 13.3392 8.63983 13.1837 8.64127 13.0263C8.64271 12.8689 8.61279 12.7127 8.55325 12.567C8.49371 12.4213 8.40574 12.2889 8.29448 12.1775C8.18322 12.0662 8.0509 11.9781 7.90523 11.9184C7.75956 11.8587 7.60346 11.8287 7.44605 11.83C7.28864 11.8313 7.13306 11.8639 6.98839 11.926C6.84372 11.988 6.71286 12.0783 6.60345 12.1914L5.76409 13.03C5.39293 13.3978 4.89119 13.6036 4.36865 13.6023C3.84612 13.6011 3.34534 13.393 2.9759 13.0235C2.60646 12.6539 2.39845 12.1531 2.39738 11.6306C2.39631 11.1081 2.60227 10.6064 2.97019 10.2354L5.4851 7.72062C5.75692 7.44869 6.10218 7.26198 6.47856 7.18337C6.85494 7.10475 7.24608 7.13766 7.60403 7.27805C7.73154 7.32863 7.85115 7.38026 7.96285 7.43295L8.32958 7.60445C8.8196 7.82574 9.19659 7.92057 9.67634 7.44164C10.3655 6.75249 10.1869 6.11629 9.34676 5.53699C8.50985 4.96113 7.49767 4.69657 6.486 4.78926C5.47433 4.88195 4.52708 5.32602 3.80876 6.04437ZM8.55878 1.29458L7.72101 2.13231C7.50494 2.35579 7.38531 2.65519 7.38786 2.96602C7.39041 3.27685 7.51495 3.57424 7.73466 3.79414C7.95436 4.01404 8.25165 4.13886 8.56249 4.1417C8.87333 4.14455 9.17286 4.0252 9.39655 3.80936L10.2351 2.97163C10.4173 2.78287 10.6353 2.63229 10.8764 2.52867C11.1174 2.42505 11.3767 2.37048 11.639 2.36812C11.9014 2.36577 12.1616 2.41569 12.4044 2.51496C12.6473 2.61424 12.8679 2.76088 13.0535 2.94634C13.2391 3.1318 13.3858 3.35236 13.4853 3.59515C13.5847 3.83794 13.6348 4.09809 13.6325 4.36044C13.6303 4.62278 13.5759 4.88206 13.4724 5.12314C13.3689 5.36422 13.2185 5.58228 13.0298 5.7646L10.5149 8.27938C10.2431 8.55131 9.89782 8.73802 9.52144 8.81663C9.14506 8.89525 8.75392 8.86234 8.39597 8.72195C8.26846 8.67137 8.14885 8.61974 8.03715 8.56705L7.67042 8.39555C7.1804 8.17426 6.80261 8.07943 6.32366 8.55836C5.63447 9.24751 5.81309 9.88371 6.65324 10.463C7.49015 11.0389 8.50233 11.3034 9.514 11.2107C10.5257 11.1181 11.4729 10.674 12.1912 9.95563L14.7061 7.44085C15.1142 7.03821 15.4386 6.55883 15.6607 6.03031C15.8827 5.50178 15.9981 4.93456 16 4.36129C16.0019 3.78802 15.8904 3.22004 15.6719 2.69004C15.4534 2.16004 15.1322 1.67849 14.7268 1.27313C14.3214 0.867763 13.8399 0.546588 13.3098 0.328094C12.7798 0.1096 12.2118 -0.00189613 11.6385 2.43945e-05C11.0652 0.00194492 10.4979 0.117245 9.96939 0.339285C9.44084 0.561325 8.96144 0.886509 8.55878 1.29458Z" fill="#2362C0"/>
</svg>
